<svg width="1180" height="880" viewBox="-283 0 2080 880" fill="none" xmlns="http://www.w3.org/2000/svg">
<path fill-rule="evenodd" clip-rule="evenodd" d="M269.163 -222C46.8087 -222 -12.6839 -93.4533 0.983621 28.1071C10.6512 149.667 225.775 209.767 293.985 338.994C338.605 423.528 303.215 749.785 478.009 818.948C765.805 932.824 1212 852.482 1412 852.482V246.776V-222C1212 -222 495.516 -222 272.163 -222Z" fill="#9C5BF5"/>
<g transform="translate(-25)">
<path fill-rule="evenodd" stroke="#9C5BF5" style="stroke-dasharray:200" stroke-width="4" clip-rule="evenodd" d="M264.163 -222C41.8087 -222 -17.6839 -93.4533 0.983621 28.1071C10.6512 149.667 225.775 209.767 293.985 338.994C338.605 423.528 303.215 749.785 478.009 818.948C765.805 932.824 1212 852.482 1512 852.482V246.776V-222C1212 -222 495.516 -222 267.163 -222Z" fill="none"/>
</g>
</svg>